# xmcd
#
# Track frame offsets: 
#        150
#        19512
#        42959
#        62425
#        75943
#        98603
#        116664
#        132457
#        151514
#        170484
#
# Disc length: 2488 seconds
#
# Revision: 0
# Processed by: cddbd v1.5.2PL0 Copyright (c) Steve Scherf et al.
# Submitted via: ExactAudioCopy v1.3
#
DISCID=6809b60a
DTITLE=Rock-n-Rick Patterson - Beat A Demon
DYEAR=2008
DGENRE=Blues
TTITLE0=Beat A Demon
TTITLE1=St. Louis Girl
TTITLE2=I've Been Thinkin' 'Bout You
TTITLE3=When The Rain Comes
TTITLE4=Don't Have To Worry
TTITLE5=Hard Times In West L.A
TTITLE6=Sonny Kenner
TTITLE7=Still In The Game
TTITLE8=Don't Need No Woman
TTITLE9=Evil Train
EXTD=
EXTT0=
EXTT1=
EXTT2=
EXTT3=
EXTT4=
EXTT5=
EXTT6=
EXTT7=
EXTT8=
EXTT9=
PLAYORDER=
